Jump_normalized_Motion_pl01
version=1
nRows=14
nColumns=43
inDegrees=yes
endheader
time		pelvis_tilt		pelvis_list		pelvis_rotation		pelvis_tx		pelvis_ty		pelvis_tz		hip_flexion_r		hip_adduction_r		hip_rotation_r		knee_angle_r		ankle_angle_r		subtalar_angle_r		mtp_angle_r		hip_flexion_l		hip_adduction_l		hip_rotation_l		knee_angle_l		ankle_angle_l		subtalar_angle_l		mtp_angle_l		lumbar_extension		lumbar_bending		lumbar_rotation		neck_flexion		neck_lateral_bending		neck_rotation		arm_flex_r		arm_add_r		arm_rot_r		elbow_flex_r		pro_sup_r		wrist_flex_r		wrist_dev_r		hand_finger_flex_r		arm_flex_l		arm_add_l		arm_rot_l		elbow_flex_l		pro_sup_l		wrist_flex_l		wrist_dev_l		hand_finger_flex_l		
0.149167		-0.102133		-14.230811		93.517030		0.004071		1.833812		1.801093		64.568908		-5.508014		7.140789		-124.369432		26.916030		3.546662		12.130153		64.482098		0.654044		6.760427		-123.565690		30.023761		-9.111771		10.226605		-46.014731		0.101235		-1.948768		28.863547		2.716054		-2.342013		126.176118		-9.324093		34.968151		56.075257		65.668282		-32.609785		-0.610347		28.136721		121.479974		-3.325109		22.393686		61.222002		107.044706		-20.221332		13.767944		61.677987		
0.152475		-0.092799		-14.638049		93.484033		0.003813		1.835456		1.797573		64.407471		-5.497646		7.111375		-123.935715		26.889804		3.549874		12.128377		64.318425		0.668828		6.705506		-123.154710		30.003100		-9.146131		10.227388		-45.599286		0.094778		-1.966831		28.707014		2.713714		-2.330299		126.964982		-9.089710		34.925593		56.114721		65.687679		-32.592668		-0.703284		28.120376		122.248276		-3.169463		22.234192		61.247095		106.988093		-20.340409		13.706482		61.611893		
0.155783		-0.178928		-14.873621		93.357862		0.003340		1.837239		1.794391		64.168777		-5.481063		7.238991		-123.572956		26.682556		3.387773		12.169909		64.009719		0.747925		6.472388		-122.773912		29.774844		-9.817398		10.267693		-45.452306		0.077734		-1.856364		29.130181		2.369888		-2.243050		128.573469		-8.895794		36.052247		55.255889		65.669341		-32.216870		-1.298273		28.093834		123.380703		-3.044414		22.453024		60.784822		106.127092		-21.212833		13.265486		61.130647		
0.159091		-0.164962		-15.294778		93.316486		0.003129		1.838953		1.790656		63.985036		-5.456823		7.205614		-123.115549		26.689680		3.399079		12.173164		63.828386		0.769706		6.440693		-122.341520		29.771122		-9.834810		10.272027		-44.995819		0.059932		-1.883261		28.961313		2.388981		-2.261281		129.237865		-8.644974		35.909411		55.325697		65.651166		-32.247415		-1.373817		28.063691		124.082375		-2.898016		22.280340		60.792129		106.074730		-21.316045		13.217131		61.074113		
0.162399		-0.190336		-15.749271		93.254584		0.003005		1.840337		1.787407		63.934663		-5.412808		7.232165		-122.749280		26.745311		3.329230		12.202588		63.764503		0.818826		6.369049		-121.974335		29.811459		-10.057058		10.303705		-44.560723		0.007044		-1.902842		29.254495		2.402784		-2.266341		130.289878		-8.188944		35.976380		54.749748		65.571040		-32.313047		-1.460072		27.960475		125.126135		-2.573241		22.136866		60.220866		105.847334		-21.643025		13.135174		60.860428		
0.165707		-0.198880		-16.173240		93.197103		0.002744		1.842105		1.783600		63.753638		-5.378401		7.239112		-122.284019		26.718276		3.305927		12.209065		63.577483		0.860061		6.303049		-121.519234		29.756622		-10.154477		10.314131		-44.098946		-0.024623		-1.919079		29.180468		2.395994		-2.264160		131.038024		-7.960684		36.019690		54.659455		65.547037		-32.310646		-1.551981		27.923951		125.846629		-2.431092		22.009125		60.126890		105.721199		-21.834748		13.056492		60.747111		
0.169015		-0.232079		-16.604099		93.119398		0.002496		1.843761		1.779914		63.606320		-5.342326		7.276516		-121.838376		26.690007		3.240960		12.224757		63.415073		0.915554		6.209291		-121.088564		29.689590		-10.353170		10.337152		-43.647540		-0.073712		-1.921643		29.240793		2.370972		-2.251399		131.919995		-7.681628		36.195545		54.354753		65.499202		-32.305735		-1.667195		27.866583		126.664209		-2.248340		21.891785		59.853834		105.509828		-22.143042		12.954731		60.560621		
0.172323		-0.270137		-17.027339		93.019863		0.002220		1.845401		1.776202		63.450608		-5.296739		7.323690		-121.394128		26.666061		3.140444		12.246492		63.240508		0.970618		6.095133		-120.662522		29.616723		-10.629149		10.373632		-43.198041		-0.133188		-1.915942		29.311723		2.323616		-2.236634		132.823631		-7.380146		36.412159		53.956912		65.424299		-32.303711		-1.814497		27.810809		127.480494		-2.046360		21.758677		59.517986		105.241446		-22.556666		12.844922		60.323314		
0.175631		-0.282830		-17.440580		92.954676		0.001902		1.847238		1.772137		63.215428		-5.271732		7.325732		-120.890673		26.633389		3.102017		12.252920		63.001904		1.003447		6.009945		-120.197146		29.552049		-10.753871		10.391864		-42.717936		-0.159724		-1.898700		29.187578		2.303750		-2.238378		133.473335		-7.182861		36.444889		53.878090		65.381787		-32.296168		-1.926281		27.794298		128.100303		-1.942771		21.637415		59.455502		105.096851		-22.794969		12.765410		60.198826		
0.178939		-0.313339		-17.843015		92.864618		0.001599		1.849008		1.768161		62.988050		-5.232752		7.351908		-120.404844		26.610343		3.004420		12.271427		62.763706		1.039102		5.890692		-119.743428		29.485775		-11.016096		10.431767		-42.256215		-0.206063		-1.867571		29.159235		2.252576		-2.235803		134.237810		-6.927293		36.580458		53.568355		65.293870		-32.283509		-2.079084		27.774837		128.791424		-1.790236		21.534352		59.221326		104.838763		-23.205181		12.652896		59.986014		
0.182247		-0.426085		-18.036050		92.679053		0.001254		1.851304		1.763884		62.509588		-5.180732		7.466207		-119.875701		26.484784		2.738263		12.352068		62.226738		1.069002		5.595696		-119.205655		29.176186		-11.858328		10.619331		-42.026903		-0.311075		-1.722724		29.109723		1.978801		-2.291383		135.146753		-6.793611		37.130174		53.144396		64.885012		-32.130217		-2.687884		27.893666		129.443189		-1.807544		21.847785		59.091836		103.830484		-24.539653		12.148488		59.444444		
0.185556		-0.429801		-18.434265		92.637375		0.000921		1.853242		1.759570		62.207235		-5.161789		7.452931		-119.338836		26.468680		2.728699		12.364281		61.940678		1.103023		5.527518		-118.710383		29.140084		-11.943704		10.657469		-41.523407		-0.323431		-1.703917		28.945216		1.990895		-2.315208		135.665309		-6.614918		37.088139		53.080499		64.807958		-32.159112		-2.782973		27.890710		129.975454		-1.740541		21.803939		59.028644		103.672018		-24.765191		12.069922		59.356958		
0.188864		-0.424603		-18.842128		92.620673		0.000664		1.855127		1.755280		61.917284		-5.140996		7.417198		-118.817684		26.489678		2.724534		12.375458		61.671244		1.129937		5.484754		-118.207797		29.173376		-11.989914		10.692947		-41.000224		-0.334293		-1.700916		28.782579		2.033488		-2.336692		136.186049		-6.390885		36.989366		52.899348		64.755227		-32.237021		-2.806017		27.866537		130.529278		-1.621782		21.745957		58.864588		103.589021		-24.914722		12.033653		59.303300		
0.192172		-0.424650		-19.245553		92.587948		0.000351		1.857145		1.750808		61.595671		-5.134060		7.376148		-118.238701		26.461039		2.725457		12.371766		61.372551		1.163458		5.439914		-117.694667		29.147899		-12.007612		10.702441		-40.467575		-0.347326		-1.666116		28.603893		2.046590		-2.347001		136.629945		-6.249791		36.918361		52.849445		64.747803		-32.267586		-2.842315		27.853954		130.974881		-1.561271		21.678998		58.836585		103.561242		-25.005948		11.993406		59.266377		
